<svg width="100" height="100" viewBox="0 0 100 100" fill="none" xmlns="http://www.w3.org/2000/svg">
<g clip-path="url(#clip0_2005_92)">
<path d="M97.0576 24.0958L83.9159 6.34167C81.0784 2.37083 76.4659 0 71.5867 0H41.3575C41.3575 0 41.3242 0 41.3075 0H28.4159C23.5326 0 18.9242 2.37083 16.1117 6.30833L2.77838 24.1C-1.12995 29.625 -0.879952 37.1542 3.30755 42.3042L41.5409 95.9125C43.5992 98.5083 46.6825 99.9958 49.995 99.9958H49.9992C53.3117 99.9958 56.3951 98.5042 58.5159 95.8292L96.5951 42.6167C100.937 37.2708 101.128 29.6583 97.0534 24.0958H97.0576ZM80.5492 8.79583L93.7034 26.5708C94.2992 27.3833 94.7659 28.2583 95.1117 29.1667H70.2367L61.6325 4.16667H71.5867C75.1284 4.16667 78.4701 5.8875 80.5492 8.79583ZM34.1701 29.1667L42.7742 4.16667H57.2284L65.8326 29.1667H34.1701ZM65.9992 33.3333L49.9992 90.2208L33.9992 33.3333H65.9992ZM19.47 8.76667C21.5284 5.8875 24.87 4.16667 28.4117 4.16667H38.3659L29.7617 29.1667H4.79505C5.12005 28.25 5.57005 27.3708 6.14505 26.5542L19.47 8.76667ZM44.87 93.4083L6.62005 39.7833C5.09505 37.9083 4.27838 35.6333 4.17421 33.3333H29.6659L47.0284 95.0667C46.1909 94.6875 45.4409 94.1333 44.8659 93.4125L44.87 93.4083ZM55.195 93.3208C54.5909 94.0792 53.8242 94.65 52.9742 95.0417L70.3326 33.325H95.8159C95.7492 35.7125 94.9076 38.0917 93.2909 40.0833L55.1992 93.3167L55.195 93.3208Z" fill="#3D424D" fill-opacity="0.7"/>
</g>
<defs>
<clipPath id="clip0_2005_92">
<rect width="100" height="100" fill="white"/>
</clipPath>
</defs>
</svg>
