<svg width="100" height="100" viewBox="0 0 100 100" fill="none" xmlns="http://www.w3.org/2000/svg">
<path d="M96.2875 63.0583L59.5708 46.3958C55.7792 45.1125 51.6625 46.0667 48.8417 48.8875C45.9542 51.7708 45.0792 55.9292 46.575 60.1875L63.0083 96.3333C64 98.5125 66.1875 99.95 68.6208 99.9958H68.7C71.0792 99.9958 73.2208 98.675 74.2917 96.5417L81.6917 81.7375L96.5 74.3375C98.6417 73.2625 99.9958 71.025 99.9542 68.6333C99.9125 66.2375 98.475 64.0458 96.2917 63.0583H96.2875ZM94.6333 70.6083L78.5875 78.6292L70.5667 94.675C70.2083 95.3875 69.5458 95.8333 68.75 95.8333C67.9542 95.8208 67.1333 95.3375 66.8042 94.6083L50.4417 58.6375C49.5458 56.0667 50.0333 53.5875 51.7917 51.8333C52.9583 50.6625 54.5 50.0292 56.1583 50.0292C56.8958 50.0292 57.6583 50.1542 58.4167 50.4167L94.5625 66.85C95.2875 67.1792 95.7667 67.9083 95.7792 68.7042C95.7917 69.5 95.3458 70.25 94.6333 70.6083ZM50 0C49.9792 0 49.9583 0 49.9333 0C49.9333 0 49.9333 0 49.9292 0C22.3917 0.0375 0 22.4542 0 50C0 77.5458 22.4292 100 50 100C50.725 100 51.45 99.9833 52.1708 99.9542C53.3208 99.9042 54.2125 98.9333 54.1667 97.7833C54.1167 96.6375 53.125 95.7167 52 95.7875C51.6167 95.8042 51.2292 95.8167 50.8458 95.8208C48.4792 93.4458 39.4417 83.8625 33.8083 70.8292H39.5875C40.7375 70.8292 41.6708 69.8958 41.6708 68.7458C41.6708 67.5958 40.7375 66.6625 39.5875 66.6625H32.1792C30.3583 61.475 29.1708 55.8542 29.1708 49.9958C29.1708 44.1375 30.3583 38.5167 32.1833 33.3292H67.8375C68.5958 35.4875 69.2458 37.725 69.7417 40.0167C69.9542 40.9917 70.8167 41.6625 71.775 41.6625C71.9208 41.6625 72.0667 41.65 72.2167 41.6167C73.3417 41.375 74.0542 40.2667 73.8125 39.1417C73.3833 37.1542 72.85 35.2167 72.2417 33.3292H92.7C94.725 38.4958 95.8375 44.1208 95.8375 49.9958C95.8375 50.6625 95.825 51.325 95.7958 51.9875C95.7458 53.1375 96.6375 54.1083 97.7875 54.1583C98.9625 54.2667 99.9125 53.3208 99.9583 52.1667C99.9917 51.4458 100.004 50.7208 100.004 49.9917C100 22.4292 77.5708 0 50 0ZM4.16667 50C4.16667 44.125 5.27917 38.5 7.30417 33.3333H27.7417C26.0667 38.525 25 44.1292 25 50C25 55.8708 26.0667 61.475 27.7417 66.6667H7.30417C5.27917 61.5 4.16667 55.875 4.16667 50ZM29.2458 70.8333C33.6875 81.9542 40.5917 90.7708 44.8417 95.5417C29.2708 93.7917 16.0333 84.2083 9.17917 70.8333H29.2458ZM29.2458 29.1667H9.17917C16.0333 15.7917 29.2708 6.20833 44.8458 4.45833C40.5958 9.22917 33.6875 18.0458 29.2458 29.1667ZM33.8125 29.1667C38.9125 17.3792 46.8 8.4 50 5.04167C53.2083 8.40417 61.1042 17.3875 66.2 29.1667H33.8125ZM70.7292 29.1667C66.2792 18.0333 59.3875 9.225 55.1458 4.45833C70.7208 6.20833 83.9583 15.7917 90.8167 29.1667H70.7292Z" fill="#3D424D" fill-opacity="0.7"/>
</svg>
