<svg width="100" height="100" viewBox="0 0 100 100" fill="none" xmlns="http://www.w3.org/2000/svg">
<g clip-path="url(#clip0_2005_97)">
<path d="M81.25 16.6667H25V10.4167C25 4.675 20.3292 0 14.5833 0H12.5C5.60833 0 0 5.60833 0 12.5V87.8208C0 94.8708 5.52917 100 13.0958 100H81.25C91.5875 100 100 91.5875 100 81.25V35.4167C100 25.0792 91.5875 16.6667 81.25 16.6667ZM4.16667 12.5C4.16667 7.90417 7.90417 4.16667 12.5 4.16667H14.5833C18.0292 4.16667 20.8333 6.97083 20.8333 10.4167V68.75C20.8333 72.1958 18.0292 75 14.5833 75H12.5C9.41667 75 6.44583 76.1458 4.16667 78.1833V12.5ZM95.8333 81.25C95.8333 89.3042 89.3042 95.8333 81.25 95.8333H12.5C7.89583 95.8333 4.16667 92.1042 4.16667 87.5C4.16667 82.8958 7.89583 79.1667 12.5 79.1667H14.5833C20.3375 79.1667 25 74.5042 25 68.75V20.8333H81.25C89.3042 20.8333 95.8333 27.3625 95.8333 35.4167V81.25Z" fill="#3D424D" fill-opacity="0.7"/>
<path d="M87.5002 35.4167V81.2501C87.5002 84.6959 84.696 87.5001 81.2502 87.5001H39.5835C36.1377 87.5001 33.3335 84.6959 33.3335 81.2501V35.4167C33.3335 31.9709 36.1377 29.1667 39.5835 29.1667H43.7502C44.9002 29.1667 45.8335 30.1001 45.8335 31.2501C45.8335 32.4001 44.9002 33.3334 43.7502 33.3334H39.5835C38.4377 33.3334 37.5002 34.2667 37.5002 35.4167V45.8334H43.7502C44.9002 45.8334 45.8335 46.7667 45.8335 47.9167C45.8335 49.0667 44.9002 50.0001 43.7502 50.0001H37.5002V81.2501C37.5002 82.4001 38.4377 83.3334 39.5835 83.3334H58.3335V62.5001H52.0835C50.9335 62.5001 50.0002 61.5667 50.0002 60.4167C50.0002 59.2667 50.9335 58.3334 52.0835 58.3334H68.7502C69.9002 58.3334 70.8335 59.2667 70.8335 60.4167C70.8335 61.5667 69.9002 62.5001 68.7502 62.5001H62.5002V83.3334H81.2502C82.396 83.3334 83.3335 82.4001 83.3335 81.2501V35.4167C83.3335 34.2667 82.396 33.3334 81.2502 33.3334H64.5835C63.4377 33.3334 62.5002 34.2667 62.5002 35.4167V43.7501C62.5002 44.9001 61.5668 45.8334 60.4168 45.8334C59.2668 45.8334 58.3335 44.9001 58.3335 43.7501V35.4167C58.3335 31.9709 61.1377 29.1667 64.5835 29.1667H81.2502C84.696 29.1667 87.5002 31.9709 87.5002 35.4167Z" fill="#3D424D" fill-opacity="0.7"/>
</g>
<defs>
<clipPath id="clip0_2005_97">
<rect width="100" height="100" fill="white"/>
</clipPath>
</defs>
</svg>
